<svg width="20" height="20" viewBox="0 0 20 20" fill="none" xmlns="http://www.w3.org/2000/svg">
<path d="M3.76688 4.94499L1.16104 2.33999L2.34021 1.16083L18.8394 17.6608L17.6602 18.8392L14.9019 16.0808C13.4362 17.0105 11.7358 17.5028 10.0002 17.5C5.50688 17.5 1.76854 14.2667 0.984375 9.99999C1.34273 8.05893 2.31907 6.28574 3.76771 4.94499H3.76688ZM12.2977 13.4767L11.0777 12.2567C10.6111 12.4799 10.0867 12.5529 9.57682 12.4656C9.06695 12.3784 8.59671 12.135 8.23093 11.7693C7.86516 11.4035 7.62185 10.9333 7.53456 10.4234C7.44726 9.91351 7.52028 9.38912 7.74354 8.92249L6.52354 7.70249C5.99331 8.50374 5.75627 9.46361 5.85257 10.4196C5.94887 11.3755 6.37258 12.2688 7.05197 12.9482C7.73136 13.6276 8.62467 14.0513 9.58063 14.1476C10.5366 14.2439 11.4965 14.0069 12.2977 13.4767V13.4767ZM6.64521 3.13333C7.68438 2.72499 8.81688 2.49999 10.0002 2.49999C14.4935 2.49999 18.2319 5.73333 19.016 9.99999C18.7607 11.3881 18.1868 12.698 17.3394 13.8267L14.1227 10.61C14.2183 9.96634 14.1617 9.30925 13.9576 8.69137C13.7536 8.0735 13.4076 7.512 12.9475 7.05188C12.4874 6.59176 11.9259 6.2458 11.308 6.04172C10.6901 5.83764 10.033 5.78111 9.38938 5.87666L6.64521 3.13416V3.13333Z" fill="#716F6F"/>
</svg>
