<svg width="307" height="174" viewBox="0 0 307 174" fill="none" xmlns="http://www.w3.org/2000/svg">
<path d="M194.158 73.8941C193.85 73.1589 193.335 72.5305 192.675 72.0869C192.016 71.6432 191.241 71.4038 190.448 71.3981H116.382C115.318 71.3986 114.297 71.8241 113.544 72.581C112.791 73.3379 112.368 74.3643 112.367 75.4347V169.642C112.368 170.712 112.791 171.738 113.544 172.495C114.297 173.252 115.318 173.678 116.382 173.678H190.45C191.515 173.677 192.535 173.251 193.288 172.494C194.04 171.738 194.464 170.712 194.465 169.642V75.4347C194.467 74.9059 194.364 74.3821 194.161 73.8941H194.158ZM193.571 169.642C193.57 170.474 193.241 171.272 192.655 171.861C192.07 172.45 191.276 172.781 190.448 172.782H116.382C115.554 172.782 114.76 172.451 114.174 171.862C113.588 171.273 113.259 170.475 113.259 169.642V75.4353C113.26 74.6028 113.589 73.8047 114.175 73.216C114.76 72.6274 115.554 72.2962 116.382 72.295H190.45C191.074 72.2974 191.683 72.4866 192.199 72.8385C192.716 73.1903 193.116 73.6888 193.349 74.2704C193.395 74.3863 193.434 74.5046 193.467 74.6247C193.538 74.889 193.574 75.1615 193.574 75.4353L193.571 169.642Z" fill="#716F6F"/>
<path d="M178.702 93.64H156.392C155.919 93.64 155.465 93.451 155.13 93.1144C154.796 92.7779 154.607 92.3215 154.607 91.8455C154.607 91.3696 154.796 90.9132 155.13 90.5766C155.465 90.2401 155.919 90.051 156.392 90.051H178.702C179.175 90.051 179.629 90.2401 179.964 90.5766C180.299 90.9132 180.487 91.3696 180.487 91.8455C180.487 92.3215 180.299 92.7779 179.964 93.1144C179.629 93.451 179.175 93.64 178.702 93.64Z" fill="#716F6F"/>
<path d="M178.702 103.061H156.392C155.919 103.061 155.465 102.872 155.13 102.535C154.796 102.199 154.607 101.742 154.607 101.266C154.607 100.79 154.796 100.334 155.13 99.9973C155.465 99.6607 155.919 99.4717 156.392 99.4717H178.702C179.175 99.4717 179.629 99.6607 179.964 99.9973C180.299 100.334 180.487 100.79 180.487 101.266C180.487 101.742 180.299 102.199 179.964 102.535C179.629 102.872 179.175 103.061 178.702 103.061Z" fill="#716F6F"/>
<path d="M144.945 108.425H128.642C128.109 108.424 127.599 108.211 127.222 107.833C126.846 107.454 126.634 106.941 126.634 106.406V87.0621C126.634 86.5269 126.846 86.0137 127.222 85.6352C127.599 85.2567 128.109 85.0438 128.642 85.0433H144.945C145.478 85.0438 145.988 85.2567 146.365 85.6352C146.741 86.0137 146.953 86.5269 146.953 87.0621V106.406C146.953 106.941 146.741 107.454 146.365 107.833C145.988 108.211 145.478 108.424 144.945 108.425Z" fill="#1F2CFF"/>
<path d="M178.547 122.351H128.128C127.654 122.351 127.2 122.162 126.865 121.825C126.531 121.489 126.343 121.032 126.343 120.556C126.343 120.08 126.531 119.624 126.865 119.287C127.2 118.951 127.654 118.762 128.128 118.762H178.547C178.782 118.762 179.014 118.808 179.23 118.898C179.447 118.989 179.643 119.121 179.809 119.287C179.975 119.454 180.106 119.652 180.196 119.87C180.286 120.087 180.332 120.321 180.332 120.556C180.332 120.792 180.286 121.025 180.196 121.243C180.106 121.461 179.975 121.659 179.809 121.825C179.643 121.992 179.447 122.124 179.23 122.214C179.014 122.304 178.782 122.351 178.547 122.351Z" fill="#CCCCCC"/>
<path d="M178.547 131.771H128.128C127.654 131.771 127.2 131.582 126.865 131.246C126.531 130.909 126.343 130.453 126.343 129.977C126.343 129.501 126.531 129.045 126.865 128.708C127.2 128.372 127.654 128.182 128.128 128.182H178.547C179.02 128.182 179.474 128.372 179.809 128.708C180.144 129.045 180.332 129.501 180.332 129.977C180.332 130.453 180.144 130.909 179.809 131.246C179.474 131.582 179.02 131.771 178.547 131.771Z" fill="#CCCCCC"/>
<path d="M178.547 141.192H128.128C127.654 141.192 127.2 141.003 126.865 140.667C126.531 140.33 126.343 139.874 126.343 139.398C126.343 138.922 126.531 138.465 126.865 138.129C127.2 137.792 127.654 137.603 128.128 137.603H178.547C179.02 137.603 179.474 137.792 179.809 138.129C180.144 138.465 180.332 138.922 180.332 139.398C180.332 139.874 180.144 140.33 179.809 140.667C179.474 141.003 179.02 141.192 178.547 141.192Z" fill="#CCCCCC"/>
<path d="M178.547 150.613H128.128C127.654 150.613 127.2 150.424 126.865 150.087C126.531 149.751 126.343 149.294 126.343 148.818C126.343 148.342 126.531 147.886 126.865 147.55C127.2 147.213 127.654 147.024 128.128 147.024H178.547C179.02 147.024 179.474 147.213 179.809 147.55C180.144 147.886 180.332 148.342 180.332 148.818C180.332 149.294 180.144 149.751 179.809 150.087C179.474 150.424 179.02 150.613 178.547 150.613Z" fill="#CCCCCC"/>
<path d="M178.547 160.034H128.128C127.654 160.034 127.2 159.845 126.865 159.508C126.531 159.171 126.343 158.715 126.343 158.239C126.343 157.763 126.531 157.307 126.865 156.97C127.2 156.634 127.654 156.445 128.128 156.445H178.547C179.02 156.445 179.474 156.634 179.809 156.97C180.144 157.307 180.332 157.763 180.332 158.239C180.332 158.715 180.144 159.171 179.809 159.508C179.474 159.845 179.02 160.034 178.547 160.034Z" fill="#CCCCCC"/>
<path d="M154.669 48.6999C164.182 48.6999 171.894 40.9464 171.894 31.3819C171.894 21.8175 164.182 14.064 154.669 14.064C145.156 14.064 137.445 21.8175 137.445 31.3819C137.445 40.9464 145.156 48.6999 154.669 48.6999Z" fill="#1F2CFF"/>
<path d="M152.963 37.9882C152.575 37.9888 152.198 37.8628 151.888 37.629L151.869 37.6146L147.821 34.5012C147.633 34.3568 147.475 34.1766 147.357 33.9709C147.238 33.7652 147.161 33.538 147.13 33.3024C147.099 33.0668 147.115 32.8273 147.176 32.5977C147.237 32.3681 147.342 32.1528 147.486 31.9642C147.63 31.7756 147.809 31.6173 148.014 31.4984C148.218 31.3795 148.444 31.3024 148.679 31.2714C148.913 31.2404 149.151 31.2562 149.38 31.3178C149.608 31.3794 149.822 31.4856 150.01 31.6304L152.631 33.652L158.827 25.5249C159.118 25.1444 159.546 24.8954 160.019 24.8326C160.492 24.7698 160.97 24.8984 161.349 25.1901L161.349 25.1905L161.311 25.2442L161.35 25.1905C161.728 25.4827 161.976 25.9137 162.038 26.389C162.1 26.8643 161.973 27.3451 161.683 27.7258L154.395 37.2807C154.226 37.5008 154.01 37.679 153.761 37.8013C153.513 37.9236 153.24 37.9868 152.964 37.986L152.963 37.9882Z" fill="white"/>
<path d="M41.2687 23.4707C47.7151 23.4707 52.9409 18.2166 52.9409 11.7353C52.9409 5.25409 47.7151 0 41.2687 0C34.8224 0 29.5966 5.25409 29.5966 11.7353C29.5966 18.2166 34.8224 23.4707 41.2687 23.4707Z" fill="#CCCCCC"/>
<path d="M40.1118 16.2116C39.8492 16.2121 39.5936 16.1268 39.3835 15.9685L39.3707 15.9588L36.6275 13.8471C36.3784 13.6469 36.2172 13.3565 36.1785 13.0382C36.1399 12.7199 36.2269 12.3991 36.4208 12.1445C36.6148 11.8899 36.9002 11.7219 37.2159 11.6766C37.5317 11.6312 37.8525 11.712 38.1096 11.9017L39.8865 13.2716L44.0851 7.7663C44.2817 7.50848 44.5721 7.33975 44.8924 7.29723C45.2128 7.2547 45.5368 7.34187 45.7932 7.53954L45.7935 7.53977L45.7674 7.5752L45.7941 7.54031C46.0502 7.73829 46.2177 8.03032 46.26 8.35235C46.3022 8.67437 46.2157 9.00009 46.0194 9.25805L41.0808 15.7339C40.9666 15.8832 40.8197 16.0039 40.6516 16.0869C40.4834 16.1698 40.2985 16.2127 40.1112 16.2122L40.1118 16.2116Z" fill="white"/>
<path d="M74.0689 39.2512C73.8265 38.6728 73.4208 38.1785 72.902 37.8294C72.3831 37.4803 71.7739 37.2918 71.1496 37.2871H12.8684C12.0306 37.2875 11.2274 37.6223 10.635 38.2179C10.0427 38.8134 9.70968 39.6211 9.70926 40.4633V114.59C9.70968 115.433 10.0427 116.24 10.635 116.836C11.2274 117.431 12.0306 117.766 12.8684 117.767H71.1496C71.9871 117.765 72.7899 117.43 73.3821 116.835C73.9743 116.24 74.3075 115.432 74.3087 114.59V40.4633C74.31 40.0472 74.2285 39.6351 74.0689 39.2512ZM73.6071 114.591C73.6059 115.245 73.3467 115.873 72.8864 116.336C72.4261 116.798 71.8021 117.059 71.1512 117.06H12.8684C12.217 117.06 11.5923 116.8 11.1317 116.337C10.6712 115.874 10.4124 115.246 10.4124 114.591V40.4633C10.4137 39.8088 10.6728 39.1815 11.1331 38.7187C11.5934 38.2559 12.2174 37.9953 12.8684 37.9941H71.1496C71.6407 37.9961 72.1201 38.1453 72.5264 38.4225C72.9328 38.6998 73.2477 39.0926 73.4309 39.5507C73.4666 39.6419 73.4975 39.7349 73.5233 39.8293C73.5792 40.0373 73.6076 40.2517 73.6077 40.4671L73.6071 114.591Z" fill="#CCCCCC"/>
<path d="M61.9051 54.7887H44.3504C43.9779 54.7887 43.6207 54.6399 43.3573 54.3751C43.0939 54.1103 42.946 53.7511 42.946 53.3766C42.946 53.0021 43.0939 52.643 43.3573 52.3782C43.6207 52.1134 43.9779 51.9646 44.3504 51.9646H61.9045C62.277 51.9646 62.6342 52.1134 62.8976 52.3782C63.161 52.643 63.309 53.0021 63.309 53.3766C63.309 53.7511 63.161 54.1103 62.8976 54.3751C62.6342 54.6399 62.277 54.7887 61.9045 54.7887H61.9051Z" fill="#CCCCCC"/>
<path d="M61.9051 62.2017H44.3504C43.9779 62.2017 43.6207 62.053 43.3573 61.7882C43.0939 61.5234 42.946 61.1642 42.946 60.7897C42.946 60.4152 43.0939 60.0561 43.3573 59.7913C43.6207 59.5264 43.9779 59.3777 44.3504 59.3777H61.9045C62.277 59.3777 62.6342 59.5264 62.8976 59.7913C63.161 60.0561 63.309 60.4152 63.309 60.7897C63.309 61.1642 63.161 61.5234 62.8976 61.7882C62.6342 62.053 62.277 62.2017 61.9045 62.2017H61.9051Z" fill="#CCCCCC"/>
<path d="M35.343 66.4225H22.5144C22.0955 66.4221 21.6939 66.2546 21.3977 65.9568C21.1016 65.6591 20.935 65.2553 20.9346 64.8342V49.6135C20.935 49.1923 21.1016 48.7886 21.3977 48.4908C21.6939 48.193 22.0955 48.0255 22.5144 48.0251H35.343C35.7618 48.0257 36.1633 48.1932 36.4594 48.4909C36.7556 48.7887 36.9222 49.1924 36.9228 49.6135V64.8342C36.9223 65.2553 36.7558 65.6591 36.4596 65.9568C36.1634 66.2546 35.7618 66.4221 35.343 66.4225Z" fill="#CCCCCC"/>
<path d="M61.7828 77.38H22.1102C21.7377 77.38 21.3805 77.2313 21.1171 76.9665C20.8537 76.7017 20.7058 76.3425 20.7058 75.968C20.7058 75.5935 20.8537 75.2344 21.1171 74.9696C21.3805 74.7047 21.7377 74.556 22.1102 74.556H61.7828C62.1553 74.556 62.5125 74.7047 62.7759 74.9696C63.0393 75.2344 63.1872 75.5935 63.1872 75.968C63.1872 76.3425 63.0393 76.7017 62.7759 76.9665C62.5125 77.2313 62.1553 77.38 61.7828 77.38Z" fill="#CCCCCC"/>
<path d="M61.7828 84.7953H22.1102C21.7377 84.7953 21.3805 84.6465 21.1171 84.3817C20.8537 84.1169 20.7058 83.7578 20.7058 83.3833C20.7058 83.0088 20.8537 82.6496 21.1171 82.3848C21.3805 82.12 21.7377 81.9713 22.1102 81.9713H61.7828C62.1553 81.9713 62.5125 82.12 62.7759 82.3848C63.0393 82.6496 63.1872 83.0088 63.1872 83.3833C63.1872 83.7578 63.0393 84.1169 62.7759 84.3817C62.5125 84.6465 62.1553 84.7953 61.7828 84.7953Z" fill="#CCCCCC"/>
<path d="M61.7828 92.2056H22.1102C21.7377 92.2056 21.3805 92.0569 21.1171 91.7921C20.8537 91.5273 20.7058 91.1681 20.7058 90.7936C20.7058 90.4191 20.8537 90.06 21.1171 89.7952C21.3805 89.5304 21.7377 89.3816 22.1102 89.3816H61.7828C62.1553 89.3816 62.5125 89.5304 62.7759 89.7952C63.0393 90.06 63.1872 90.4191 63.1872 90.7936C63.1872 91.1681 63.0393 91.5273 62.7759 91.7921C62.5125 92.0569 62.1553 92.2056 61.7828 92.2056Z" fill="#CCCCCC"/>
<path d="M61.7828 99.6204H22.1102C21.7377 99.6204 21.3805 99.4716 21.1171 99.2068C20.8537 98.942 20.7058 98.5828 20.7058 98.2083C20.7058 97.8339 20.8537 97.4747 21.1171 97.2099C21.3805 96.9451 21.7377 96.7963 22.1102 96.7963H61.7828C62.1553 96.7963 62.5125 96.9451 62.7759 97.2099C63.0393 97.4747 63.1872 97.8339 63.1872 98.2083C63.1872 98.5828 63.0393 98.942 62.7759 99.2068C62.5125 99.4716 62.1553 99.6204 61.7828 99.6204Z" fill="#CCCCCC"/>
<path d="M61.7828 107.031H22.1102C21.7377 107.031 21.3805 106.883 21.1171 106.618C20.8537 106.353 20.7058 105.994 20.7058 105.619C20.7058 105.245 20.8537 104.886 21.1171 104.621C21.3805 104.356 21.7377 104.207 22.1102 104.207H61.7828C62.1553 104.207 62.5125 104.356 62.7759 104.621C63.0393 104.886 63.1872 105.245 63.1872 105.619C63.1872 105.994 63.0393 106.353 62.7759 106.618C62.5125 106.883 62.1553 107.031 61.7828 107.031Z" fill="#CCCCCC"/>
<path d="M0.422576 118.076H82.3412C82.4526 118.076 82.5595 118.032 82.6383 117.953C82.7171 117.873 82.7614 117.766 82.7614 117.654C82.7614 117.542 82.7171 117.434 82.6383 117.355C82.5595 117.276 82.4526 117.231 82.3412 117.231H0.422576C0.367397 117.231 0.312696 117.242 0.261597 117.263C0.210498 117.284 0.164004 117.314 0.124765 117.353C0.0855262 117.392 0.0543169 117.439 0.0329113 117.49C0.0115057 117.541 0.000320183 117.596 6.77779e-06 117.651C-0.000306627 117.707 0.0102518 117.762 0.0310783 117.813C0.0519048 117.865 0.0825967 117.911 0.121392 117.951C0.160188 117.99 0.206331 118.022 0.25719 118.043C0.308048 118.065 0.362623 118.076 0.417802 118.076H0.422576Z" fill="#CCCCCC"/>
<path d="M265.507 23.4707C271.954 23.4707 277.179 18.2166 277.179 11.7353C277.179 5.25409 271.954 0 265.507 0C259.061 0 253.835 5.25409 253.835 11.7353C253.835 18.2166 259.061 23.4707 265.507 23.4707Z" fill="#CCCCCC"/>
<path d="M264.35 16.2116C264.088 16.2121 263.832 16.1268 263.622 15.9685L263.609 15.9588L260.866 13.8471C260.617 13.6469 260.456 13.3565 260.417 13.0382C260.379 12.7199 260.465 12.3991 260.659 12.1445C260.853 11.8899 261.139 11.7219 261.455 11.6766C261.77 11.6312 262.091 11.712 262.348 11.9017L264.125 13.2716L268.324 7.7663C268.52 7.50848 268.811 7.33975 269.131 7.29723C269.451 7.2547 269.775 7.34187 270.032 7.53954L270.032 7.53977L270.006 7.5752L270.033 7.54031C270.289 7.73829 270.456 8.03032 270.499 8.35235C270.541 8.67437 270.454 9.00009 270.258 9.25805L265.319 15.7339C265.205 15.8832 265.058 16.0039 264.89 16.0869C264.722 16.1698 264.537 16.2127 264.35 16.2122L264.35 16.2116Z" fill="white"/>
<path d="M298.308 39.2512C298.065 38.6728 297.659 38.1785 297.141 37.8294C296.622 37.4803 296.012 37.2918 295.388 37.2871H237.107C236.269 37.2875 235.466 37.6223 234.874 38.2179C234.281 38.8134 233.948 39.6211 233.948 40.4633V114.59C233.948 115.433 234.281 116.24 234.874 116.836C235.466 117.431 236.269 117.766 237.107 117.767H295.388C296.226 117.765 297.029 117.43 297.621 116.835C298.213 116.24 298.546 115.432 298.547 114.59V40.4633C298.549 40.0472 298.467 39.6351 298.308 39.2512ZM297.846 114.591C297.844 115.245 297.585 115.873 297.125 116.336C296.665 116.798 296.041 117.059 295.39 117.06H237.107C236.784 117.06 236.465 116.996 236.167 116.872C235.869 116.748 235.598 116.566 235.37 116.337C235.142 116.108 234.961 115.835 234.838 115.536C234.715 115.236 234.651 114.915 234.651 114.591V40.4633C234.652 39.8088 234.911 39.1815 235.372 38.7187C235.832 38.2559 236.456 37.9953 237.107 37.9941H295.388C295.879 37.9961 296.359 38.1453 296.765 38.4225C297.171 38.6998 297.486 39.0926 297.67 39.5507C297.705 39.6419 297.736 39.7349 297.762 39.8293C297.818 40.0373 297.846 40.2517 297.846 40.4671L297.846 114.591Z" fill="#CCCCCC"/>
<path d="M286.144 54.7887H268.589C268.217 54.7887 267.859 54.6399 267.596 54.3751C267.333 54.1103 267.185 53.7511 267.185 53.3766C267.185 53.0021 267.333 52.643 267.596 52.3782C267.859 52.1134 268.217 51.9646 268.589 51.9646H286.143C286.516 51.9646 286.873 52.1134 287.136 52.3782C287.4 52.643 287.548 53.0021 287.548 53.3766C287.548 53.7511 287.4 54.1103 287.136 54.3751C286.873 54.6399 286.516 54.7887 286.143 54.7887H286.144Z" fill="#CCCCCC"/>
<path d="M286.144 62.2017H268.589C268.217 62.2017 267.859 62.053 267.596 61.7882C267.333 61.5234 267.185 61.1642 267.185 60.7897C267.185 60.4152 267.333 60.0561 267.596 59.7913C267.859 59.5264 268.217 59.3777 268.589 59.3777H286.143C286.516 59.3777 286.873 59.5264 287.136 59.7913C287.4 60.0561 287.548 60.4152 287.548 60.7897C287.548 61.1642 287.4 61.5234 287.136 61.7882C286.873 62.053 286.516 62.2017 286.143 62.2017H286.144Z" fill="#CCCCCC"/>
<path d="M259.582 66.4225H246.753C246.334 66.4221 245.932 66.2546 245.636 65.9568C245.34 65.6591 245.174 65.2553 245.173 64.8342V49.6135C245.174 49.1923 245.34 48.7886 245.636 48.4908C245.932 48.193 246.334 48.0255 246.753 48.0251H259.582C260 48.0257 260.402 48.1932 260.698 48.4909C260.994 48.7887 261.161 49.1924 261.161 49.6135V64.8342C261.161 65.2553 260.994 65.6591 260.698 65.9568C260.402 66.2546 260 66.4221 259.582 66.4225Z" fill="#CCCCCC"/>
<path d="M286.021 77.38H246.349C245.976 77.38 245.619 77.2313 245.356 76.9665C245.092 76.7017 244.944 76.3425 244.944 75.968C244.944 75.5935 245.092 75.2344 245.356 74.9696C245.619 74.7047 245.976 74.556 246.349 74.556H286.021C286.394 74.556 286.751 74.7047 287.015 74.9696C287.278 75.2344 287.426 75.5935 287.426 75.968C287.426 76.3425 287.278 76.7017 287.015 76.9665C286.751 77.2313 286.394 77.38 286.021 77.38Z" fill="#CCCCCC"/>
<path d="M286.021 84.7953H246.349C245.976 84.7953 245.619 84.6465 245.356 84.3817C245.092 84.1169 244.944 83.7578 244.944 83.3833C244.944 83.0088 245.092 82.6496 245.356 82.3848C245.619 82.12 245.976 81.9713 246.349 81.9713H286.021C286.394 81.9713 286.751 82.12 287.015 82.3848C287.278 82.6496 287.426 83.0088 287.426 83.3833C287.426 83.7578 287.278 84.1169 287.015 84.3817C286.751 84.6465 286.394 84.7953 286.021 84.7953Z" fill="#CCCCCC"/>
<path d="M286.021 92.2056H246.349C245.976 92.2056 245.619 92.0569 245.356 91.7921C245.092 91.5273 244.944 91.1681 244.944 90.7936C244.944 90.4191 245.092 90.06 245.356 89.7952C245.619 89.5304 245.976 89.3816 246.349 89.3816H286.021C286.394 89.3816 286.751 89.5304 287.015 89.7952C287.278 90.06 287.426 90.4191 287.426 90.7936C287.426 91.1681 287.278 91.5273 287.015 91.7921C286.751 92.0569 286.394 92.2056 286.021 92.2056Z" fill="#CCCCCC"/>
<path d="M286.021 99.6204H246.349C245.976 99.6204 245.619 99.4716 245.356 99.2068C245.092 98.942 244.944 98.5828 244.944 98.2083C244.944 97.8339 245.092 97.4747 245.356 97.2099C245.619 96.9451 245.976 96.7963 246.349 96.7963H286.021C286.394 96.7963 286.751 96.9451 287.015 97.2099C287.278 97.4747 287.426 97.8339 287.426 98.2083C287.426 98.5828 287.278 98.942 287.015 99.2068C286.751 99.4716 286.394 99.6204 286.021 99.6204Z" fill="#CCCCCC"/>
<path d="M286.021 107.031H246.349C245.976 107.031 245.619 106.883 245.356 106.618C245.092 106.353 244.944 105.994 244.944 105.619C244.944 105.245 245.092 104.886 245.356 104.621C245.619 104.356 245.976 104.207 246.349 104.207H286.021C286.394 104.207 286.751 104.356 287.015 104.621C287.278 104.886 287.426 105.245 287.426 105.619C287.426 105.994 287.278 106.353 287.015 106.618C286.751 106.883 286.394 107.031 286.021 107.031Z" fill="#CCCCCC"/>
<path d="M224.661 118.076H306.58C306.691 118.076 306.798 118.032 306.877 117.953C306.956 117.873 307 117.766 307 117.654C307 117.542 306.956 117.434 306.877 117.355C306.798 117.276 306.691 117.231 306.58 117.231H224.661C224.606 117.231 224.551 117.242 224.5 117.263C224.449 117.284 224.403 117.314 224.363 117.353C224.324 117.392 224.293 117.439 224.272 117.49C224.25 117.541 224.239 117.596 224.239 117.651C224.238 117.707 224.249 117.762 224.27 117.813C224.291 117.865 224.321 117.911 224.36 117.951C224.399 117.99 224.445 118.022 224.496 118.043C224.547 118.065 224.601 118.076 224.656 118.076H224.661Z" fill="#CCCCCC"/>
<path d="M100.91 174H205.021C205.162 174 205.298 173.943 205.398 173.843C205.498 173.742 205.554 173.606 205.554 173.463C205.554 173.321 205.498 173.184 205.398 173.084C205.298 172.983 205.162 172.926 205.021 172.926H100.91C100.768 172.926 100.632 172.983 100.532 173.084C100.432 173.184 100.376 173.321 100.376 173.463C100.376 173.606 100.432 173.742 100.532 173.843C100.632 173.943 100.768 174 100.91 174Z" fill="#716F6F"/>
</svg>
