<svg width="150" height="150" viewBox="0 0 150 150" fill="none" xmlns="http://www.w3.org/2000/svg">
<rect width="150" height="150" rx="10" fill="white"/>
<path d="M85.7518 72.4879C85.7518 78.6328 80.7433 83.6169 74.5683 83.6169C68.3934 83.6169 63.3849 78.6328 63.3849 72.4879H50.8872C50.8872 85.5052 61.4873 96.0538 74.5683 96.0538C87.6494 96.0538 98.2495 85.4975 98.2495 72.4879H85.7518Z" fill="url(#paint0_linear)"/>
<path d="M98.2495 26.045H75.7893C45.9332 24.3734 41.8347 69.7947 72.1808 73.0297C95.0842 75.2121 103.53 50.1913 93.871 35.7732C96.6863 33.4746 98.4206 29.9301 98.2495 26.045ZM76.4348 60.5541C62.1095 63.1467 58.3921 40.8811 72.6396 38.6135C73.744 38.4045 74.7939 38.3503 75.7893 38.4277L76.0771 38.4509C87.5405 39.6041 89.5392 58.5187 76.4348 60.5541Z" fill="url(#paint1_linear)"/>
<path d="M37.5763 103.59C38.5508 103.59 39.4074 103.785 40.1461 104.177C40.8849 104.552 41.4664 105.045 41.8908 105.656V103.801H45.215V116.9C45.215 118.106 44.9714 119.178 44.4841 120.117C43.9969 121.071 43.266 121.823 42.2915 122.37C41.3171 122.934 40.1383 123.215 38.7551 123.215C36.9005 123.215 35.3759 122.785 34.1814 121.924C33.0026 121.063 32.3346 119.89 32.1774 118.403H35.4545C35.6274 118.998 35.9967 119.467 36.5625 119.811C37.1441 120.171 37.8435 120.351 38.6608 120.351C39.6196 120.351 40.3976 120.062 40.9949 119.483C41.5921 118.919 41.8908 118.059 41.8908 116.9V114.882C41.4664 115.492 40.877 116.001 40.1225 116.408C39.3838 116.814 38.5351 117.018 37.5763 117.018C36.4761 117.018 35.4702 116.736 34.5586 116.173C33.647 115.609 32.924 114.819 32.3896 113.802C31.8709 112.769 31.6116 111.587 31.6116 110.257C31.6116 108.942 31.8709 107.776 32.3896 106.759C32.924 105.742 33.6391 104.959 34.535 104.411C35.4466 103.864 36.4604 103.59 37.5763 103.59ZM41.8908 110.304C41.8908 109.506 41.7336 108.825 41.4192 108.261C41.1049 107.682 40.6805 107.244 40.1461 106.947C39.6117 106.634 39.038 106.477 38.4251 106.477C37.8121 106.477 37.2463 106.626 36.7276 106.923C36.2089 107.221 35.7845 107.659 35.4545 108.238C35.1401 108.801 34.9829 109.474 34.9829 110.257C34.9829 111.039 35.1401 111.728 35.4545 112.323C35.7845 112.902 36.2089 113.348 36.7276 113.661C37.262 113.974 37.8278 114.13 38.4251 114.13C39.038 114.13 39.6117 113.982 40.1461 113.684C40.6805 113.371 41.1049 112.933 41.4192 112.37C41.7336 111.791 41.8908 111.102 41.8908 110.304ZM51.7393 105.82C52.1637 105.131 52.7138 104.591 53.3896 104.2C54.0812 103.809 54.8671 103.613 55.7472 103.613V107.064H54.8749C53.8376 107.064 53.0517 107.307 52.5173 107.792C51.9986 108.277 51.7393 109.122 51.7393 110.327V116.807H48.4386V103.801H51.7393V105.82ZM70.1121 110.022C70.1121 110.492 70.0808 110.914 70.0178 111.29H60.4695C60.5481 112.229 60.8781 112.964 61.4597 113.497C62.0412 114.029 62.7564 114.295 63.6051 114.295C64.8311 114.295 65.7034 113.77 66.2221 112.722H69.7821C69.4049 113.974 68.6817 115.007 67.6131 115.821C66.5444 116.619 65.2319 117.018 63.6758 117.018C62.4184 117.018 61.2868 116.744 60.2809 116.196C59.2907 115.633 58.5127 114.842 57.9468 113.825C57.3967 112.808 57.1217 111.634 57.1217 110.304C57.1217 108.958 57.3967 107.776 57.9468 106.759C58.497 105.742 59.2671 104.959 60.2573 104.411C61.2475 103.864 62.387 103.59 63.6758 103.59C64.9175 103.59 66.0257 103.856 67.0001 104.388C67.9903 104.92 68.7525 105.679 69.287 106.665C69.837 107.635 70.1121 108.754 70.1121 110.022ZM66.6936 109.083C66.6778 108.238 66.3713 107.565 65.7741 107.064C65.177 106.548 64.446 106.29 63.5815 106.29C62.7642 106.29 62.0726 106.54 61.5068 107.041C60.9567 107.526 60.6188 108.207 60.4931 109.083H66.6936ZM71.6725 110.257C71.6725 108.942 71.9319 107.776 72.4506 106.759C72.9851 105.742 73.7001 104.959 74.596 104.411C75.5077 103.864 76.5215 103.59 77.6373 103.59C78.6117 103.59 79.4604 103.785 80.1835 104.177C80.9221 104.568 81.5115 105.061 81.9517 105.656V103.801H85.276V116.807H81.9517V114.905C81.5274 115.515 80.938 116.024 80.1835 116.431C79.4449 116.822 78.5881 117.018 77.6137 117.018C76.5134 117.018 75.5077 116.736 74.596 116.173C73.7001 115.609 72.9851 114.819 72.4506 113.802C71.9319 112.769 71.6725 111.587 71.6725 110.257ZM81.9517 110.304C81.9517 109.506 81.7944 108.825 81.4802 108.261C81.166 107.682 80.7416 107.244 80.2071 106.947C79.6726 106.634 79.099 106.477 78.486 106.477C77.8731 106.477 77.3072 106.626 76.7886 106.923C76.2699 107.221 75.8455 107.659 75.5154 108.238C75.2012 108.801 75.0439 109.474 75.0439 110.257C75.0439 111.039 75.2012 111.728 75.5154 112.323C75.8455 112.902 76.2699 113.348 76.7886 113.661C77.3231 113.974 77.8889 114.13 78.486 114.13C79.099 114.13 79.6726 113.982 80.2071 113.684C80.7416 113.371 81.166 112.933 81.4802 112.37C81.7944 111.791 81.9517 111.102 81.9517 110.304ZM91.8001 105.679C92.2245 105.084 92.8062 104.591 93.5448 104.2C94.2992 103.793 95.156 103.59 96.1146 103.59C97.2307 103.59 98.2364 103.864 99.1323 104.411C100.044 104.959 100.759 105.742 101.278 106.759C101.812 107.761 102.079 108.927 102.079 110.257C102.079 111.587 101.812 112.769 101.278 113.802C100.759 114.819 100.044 115.609 99.1323 116.173C98.2364 116.736 97.2307 117.018 96.1146 117.018C95.156 117.018 94.3073 116.822 93.5684 116.431C92.8456 116.04 92.2562 115.547 91.8001 114.952V123.004H88.4995V103.801H91.8001V105.679ZM98.708 110.257C98.708 109.474 98.5429 108.801 98.2129 108.238C97.8986 107.659 97.4743 107.221 96.9397 106.923C96.4211 106.626 95.8552 106.477 95.2423 106.477C94.6451 106.477 94.0793 106.634 93.5448 106.947C93.0261 107.244 92.6017 107.682 92.2717 108.261C91.9574 108.841 91.8001 109.521 91.8001 110.304C91.8001 111.086 91.9574 111.767 92.2717 112.346C92.6017 112.925 93.0261 113.371 93.5448 113.684C94.0793 113.982 94.6451 114.13 95.2423 114.13C95.8552 114.13 96.4211 113.974 96.9397 113.661C97.4743 113.348 97.8986 112.902 98.2129 112.323C98.5429 111.744 98.708 111.055 98.708 110.257ZM116.973 103.801L108.887 122.957H105.374L108.203 116.478L102.969 103.801H106.671L110.042 112.886L113.461 103.801H116.973Z" fill="#231F20"/>
<defs>
<linearGradient id="paint0_linear" x1="56.9455" y1="68.7376" x2="71.1716" y2="107.912" gradientUnits="userSpaceOnUse">
<stop stop-color="#1F2CFF"/>
<stop offset="0.7989" stop-color="#1E93FF"/>
</linearGradient>
<linearGradient id="paint1_linear" x1="57.3219" y1="18.4943" x2="99.6394" y2="76.2063" gradientUnits="userSpaceOnUse">
<stop stop-color="#1F2CFF"/>
<stop offset="0.7989" stop-color="#1E93FF"/>
</linearGradient>
</defs>
</svg>
