<svg width="118" height="32" viewBox="0 0 118 32" fill="none" xmlns="http://www.w3.org/2000/svg">
<path d="M15.8308 21.2357C15.8308 24.0435 13.5566 26.3197 10.7547 26.3197C7.94942 26.3197 5.67524 24.0435 5.67524 21.2357H0C0 27.1784 4.81391 32 10.7547 32C16.6921 32 21.506 27.1784 21.5094 21.2357H15.8308Z" fill="url(#paint0_linear)"/>
<path d="M21.506 0.0205492H11.3096C-2.24697 -0.742732 -4.10921 20.0022 9.67206 21.4776C20.0727 22.4726 23.9095 11.0472 19.5212 4.46053C20.7978 3.41443 21.5843 1.79586 21.506 0.0205492ZM11.6024 15.7837C5.09646 16.9661 3.41125 6.79808 9.87973 5.7622C10.3836 5.66679 10.8568 5.64293 11.3096 5.67701L11.439 5.68723C16.6444 6.21199 17.5534 14.8534 11.6024 15.7837Z" fill="url(#paint1_linear)"/>
<path d="M37.5405 5.9938C38.5256 5.9938 39.3914 6.19258 40.1381 6.59012C40.8849 6.97176 41.4727 7.47266 41.9016 8.09283V6.20848H45.2618V19.5182C45.2618 20.7426 45.0156 21.8319 44.5231 22.786C44.0306 23.756 43.2918 24.5193 42.3068 25.0758C41.3218 25.6483 40.1302 25.9345 38.7321 25.9345C36.8574 25.9345 35.3163 25.4972 34.1088 24.6226C32.9173 23.748 32.2421 22.5554 32.0832 21.0448H35.3957C35.5705 21.649 35.9438 22.1261 36.5158 22.4759C37.1036 22.8416 37.8106 23.0245 38.6368 23.0245C39.6059 23.0245 40.3923 22.7304 40.9961 22.142C41.5998 21.5695 41.9016 20.6949 41.9016 19.5182V17.4669C41.4727 18.087 40.8769 18.6039 40.1143 19.0173C39.3676 19.4307 38.5097 19.6375 37.5405 19.6375C36.4284 19.6375 35.4116 19.3512 34.4901 18.7788C33.5687 18.2063 32.8378 17.4033 32.2977 16.3697C31.7734 15.3202 31.5112 14.1196 31.5112 12.7679C31.5112 11.4322 31.7734 10.2475 32.2977 9.2139C32.8378 8.18029 33.5607 7.3852 34.4663 6.82864C35.3878 6.27209 36.4125 5.9938 37.5405 5.9938ZM41.9016 12.8156C41.9016 12.0046 41.7428 11.3129 41.425 10.7405C41.1073 10.1521 40.6783 9.70686 40.1381 9.40472C39.598 9.08668 39.0181 8.92767 38.3985 8.92767C37.7788 8.92767 37.2069 9.07873 36.6826 9.38087C36.1583 9.68301 35.7294 10.1282 35.3957 10.7166C35.078 11.2891 34.9191 11.9729 34.9191 12.7679C34.9191 13.563 35.078 14.2627 35.3957 14.867C35.7294 15.4553 36.1583 15.9085 36.6826 16.2265C37.2228 16.5446 37.7947 16.7036 38.3985 16.7036C39.0181 16.7036 39.598 16.5525 40.1381 16.2504C40.6783 15.9324 41.1073 15.4871 41.425 14.9147C41.7428 14.3263 41.9016 13.6266 41.9016 12.8156ZM51.8568 8.2598C52.2857 7.56012 52.8418 7.01152 53.525 6.61397C54.224 6.21643 55.0184 6.01766 55.9081 6.01766V9.52398H55.0263C53.9778 9.52398 53.1834 9.77045 52.6432 10.2634C52.1189 10.7564 51.8568 11.6151 51.8568 12.8395V19.4228H48.5204V6.20848H51.8568V8.2598ZM70.4284 12.5294C70.4284 13.0065 70.3968 13.4358 70.3331 13.8174H60.6814C60.7609 14.7715 61.0945 15.5189 61.6823 16.0596C62.2702 16.6002 62.993 16.8706 63.851 16.8706C65.0902 16.8706 65.972 16.3379 66.4963 15.2724H70.0948C69.7135 16.5446 68.9826 17.5941 67.9023 18.421C66.8221 19.232 65.4954 19.6375 63.9225 19.6375C62.6515 19.6375 61.5076 19.3592 60.4908 18.8026C59.4899 18.2302 58.7034 17.4271 58.1315 16.3935C57.5754 15.3599 57.2974 14.1673 57.2974 12.8156C57.2974 11.4481 57.5754 10.2475 58.1315 9.2139C58.6876 8.18029 59.466 7.3852 60.4669 6.82864C61.4678 6.27209 62.6197 5.9938 63.9225 5.9938C65.1776 5.9938 66.2978 6.26413 67.2827 6.80479C68.2836 7.34545 69.054 8.11668 69.5943 9.11849C70.1503 10.1044 70.4284 11.2414 70.4284 12.5294ZM66.9729 11.5753C66.9569 10.7166 66.6471 10.0328 66.0435 9.52398C65.4399 8.99923 64.701 8.73685 63.8271 8.73685C63.001 8.73685 62.3019 8.99128 61.73 9.50013C61.1739 9.99309 60.8324 10.6848 60.7052 11.5753H66.9729ZM72.0057 12.7679C72.0057 11.4322 72.2679 10.2475 72.7921 9.2139C73.3324 8.18029 74.0552 7.3852 74.9608 6.82864C75.8824 6.27209 76.9071 5.9938 78.035 5.9938C79.0199 5.9938 79.8779 6.19258 80.6088 6.59012C81.3554 6.98766 81.9512 7.48857 82.3961 8.09283V6.20848H85.7563V19.4228H82.3961V17.4907C81.9672 18.1109 81.3714 18.6277 80.6088 19.0411C79.8622 19.4387 78.9961 19.6375 78.0112 19.6375C76.8989 19.6375 75.8824 19.3512 74.9608 18.7788C74.0552 18.2063 73.3324 17.4033 72.7921 16.3697C72.2679 15.3202 72.0057 14.1196 72.0057 12.7679ZM82.3961 12.8156C82.3961 12.0046 82.2372 11.3129 81.9195 10.7405C81.6019 10.1521 81.1729 9.70686 80.6326 9.40472C80.0923 9.08668 79.5126 8.92767 78.8929 8.92767C78.2733 8.92767 77.7014 9.07873 77.1771 9.38087C76.6528 9.68301 76.2238 10.1282 75.8902 10.7166C75.5726 11.2891 75.4136 11.9729 75.4136 12.7679C75.4136 13.563 75.5726 14.2627 75.8902 14.867C76.2238 15.4553 76.6528 15.9085 77.1771 16.2265C77.7174 16.5446 78.2893 16.7036 78.8929 16.7036C79.5126 16.7036 80.0923 16.5525 80.6326 16.2504C81.1729 15.9324 81.6019 15.4871 81.9195 14.9147C82.2372 14.3263 82.3961 13.6266 82.3961 12.8156ZM92.3511 8.11668C92.7801 7.51242 93.368 7.01152 94.1146 6.61397C94.8772 6.20053 95.7433 5.9938 96.7122 5.9938C97.8405 5.9938 98.8571 6.27209 99.7626 6.82864C100.684 7.3852 101.407 8.18029 101.931 9.2139C102.472 10.2316 102.742 11.4163 102.742 12.7679C102.742 14.1196 102.472 15.3202 101.931 16.3697C101.407 17.4033 100.684 18.2063 99.7626 18.7788C98.8571 19.3512 97.8405 19.6375 96.7122 19.6375C95.7433 19.6375 94.8854 19.4387 94.1385 19.0411C93.4079 18.6436 92.8121 18.1427 92.3511 17.5384V25.7199H89.0148V6.20848H92.3511V8.11668ZM99.3337 12.7679C99.3337 11.9729 99.1669 11.2891 98.8332 10.7166C98.5156 10.1282 98.0866 9.68301 97.5463 9.38087C97.0221 9.07873 96.4501 8.92767 95.8305 8.92767C95.2269 8.92767 94.6549 9.08668 94.1146 9.40472C93.5904 9.70686 93.1614 10.1521 92.8278 10.7405C92.5101 11.3288 92.3511 12.0206 92.3511 12.8156C92.3511 13.6107 92.5101 14.3024 92.8278 14.8908C93.1614 15.4792 93.5904 15.9324 94.1146 16.2504C94.6549 16.5525 95.2269 16.7036 95.8305 16.7036C96.4501 16.7036 97.0221 16.5446 97.5463 16.2265C98.0866 15.9085 98.5156 15.4553 98.8332 14.867C99.1669 14.2786 99.3337 13.5789 99.3337 12.7679ZM117.797 6.20848L109.623 25.6722H106.072L108.932 19.0889L103.641 6.20848H107.383L110.79 15.4394L114.246 6.20848H117.797Z" fill="#231F20"/>
<defs>
<linearGradient id="paint0_linear" x1="2.75137" y1="19.5226" x2="9.27829" y2="37.3925" gradientUnits="userSpaceOnUse">
<stop stop-color="#1F2CFF"/>
<stop offset="0.7989" stop-color="#1E93FF"/>
</linearGradient>
<linearGradient id="paint1_linear" x1="2.92365" y1="-3.42767" x2="22.2827" y2="22.8208" gradientUnits="userSpaceOnUse">
<stop stop-color="#1F2CFF"/>
<stop offset="0.7989" stop-color="#1E93FF"/>
</linearGradient>
</defs>
</svg>
