<svg width="24" height="24" viewBox="0 0 24 24" fill="none" xmlns="http://www.w3.org/2000/svg">
<path d="M14.8295 15.6179C14.8295 17.0218 13.7048 18.1599 12.319 18.1599C10.9316 18.1599 9.80684 17.0218 9.80684 15.6179H7C7 18.5892 9.38085 21 12.319 21C15.2555 21 17.6364 18.5892 17.638 15.6179H14.8295Z" fill="#231F20"/>
<path d="M17.6364 5.01027H12.5936C5.8888 4.62863 4.96778 15.0011 11.7837 15.7388C16.9276 16.2363 18.8252 10.5236 16.6548 7.23027C17.2862 6.70721 17.6752 5.89793 17.6364 5.01027ZM12.7384 12.8918C9.52068 13.483 8.68722 8.39904 11.8864 7.8811C12.1356 7.83339 12.3696 7.82147 12.5936 7.83851L12.6575 7.84362C15.232 8.10599 15.6816 12.4267 12.7384 12.8918Z" fill="#231F20"/>
</svg>
